<svg height="76" width="285" xmlns="http://www.w3.org/2000/svg"><g fill="none" fill-rule="evenodd"><path d="M58.72 36.72c7.033-7.033 7.033-18.437 0-25.47-7.033-7.033-18.437-7.033-25.47 0L13 31.5V57h25.5zM46 24L4 66m46.5-21H25" stroke="#ed4a38" stroke-linecap="round" stroke-linejoin="round" stroke-width="6"/><path d="M120.487 39.346c0 1.605-.14 3.189-.423 4.75a27.23 27.23 0 01-1.22 4.523 20.734 20.734 0 01-2.017 4.084 17.856 17.856 0 01-2.814 3.4l8.069 6.93-5.174 4.718-9.24-8.102c-.694.174-1.415.315-2.164.423s-1.534.163-2.359.163c-2.885 0-5.395-.602-7.532-1.806a16.34 16.34 0 01-5.32-4.75c-1.41-1.963-2.462-4.192-3.156-6.687a29.31 29.31 0 01-1.074-7.646v-6.052c.022-1.887.185-3.736.489-5.547a25.97 25.97 0 011.399-5.14 21.34 21.34 0 012.342-4.442 16.012 16.012 0 013.286-3.498 14.365 14.365 0 014.28-2.294c1.593-.542 3.356-.813 5.286-.813 2.907 0 5.445.596 7.614 1.79a16.055 16.055 0 015.401 4.799c1.432 2.006 2.505 4.322 3.221 6.946s1.085 5.358 1.106 8.2zm-7.874-6.117c0-1.843-.146-3.665-.439-5.466-.293-1.8-.797-3.405-1.513-4.815-.716-1.41-1.686-2.554-2.912-3.433-1.225-.878-2.76-1.318-4.604-1.318s-3.356.44-4.539 1.318c-1.182.879-2.12 2.028-2.814 3.449-.694 1.42-1.177 3.031-1.448 4.832a36.435 36.435 0 00-.407 5.433v6.117c0 1.605.136 3.249.407 4.93.271 1.68.754 3.22 1.448 4.62.694 1.399 1.632 2.543 2.814 3.432 1.183.89 2.696 1.334 4.54 1.334 1.865 0 3.405-.444 4.62-1.334a9.634 9.634 0 002.895-3.416c.716-1.388 1.22-2.928 1.513-4.62.293-1.692.44-3.34.44-4.946zm40.199 21.54c-1.193 1.735-2.641 3.085-4.344 4.05s-3.606 1.448-5.71 1.448c-1.822 0-3.487-.282-4.995-.846a9.504 9.504 0 01-3.871-2.684c-1.074-1.225-1.91-2.787-2.506-4.685-.596-1.898-.895-4.181-.895-6.85V24.38h7.777v20.889c0 1.692.124 3.091.374 4.197.25 1.106.634 1.985 1.155 2.636.52.65 1.171 1.111 1.952 1.383s1.714.406 2.798.406c2.083 0 3.764-.406 5.044-1.22a7.708 7.708 0 002.895-3.302v-24.99h7.81v35.205h-7.029zm33.805 5.466c-2.603 0-4.978-.434-7.125-1.302-2.148-.867-3.986-2.06-5.515-3.579-1.53-1.518-2.717-3.313-3.563-5.384-.846-2.072-1.269-4.312-1.269-6.72v-1.333c0-2.798.45-5.315 1.35-7.549s2.104-4.143 3.612-5.726a15.54 15.54 0 015.271-3.644 16.125 16.125 0 016.328-1.27c2.56 0 4.816.429 6.768 1.286s3.584 2.06 4.897 3.611c1.312 1.551 2.304 3.39 2.977 5.515s1.009 4.458 1.009 6.996v3.286h-24.403a11.61 11.61 0 001.009 3.807 10.173 10.173 0 002.13 3.042 9.653 9.653 0 003.092 2.017c1.182.488 2.478.732 3.888.732 1.974 0 3.79-.39 5.45-1.171s3.01-1.855 4.05-3.221l4.23 3.97c-.564.845-1.29 1.664-2.18 2.456-.889.792-1.93 1.497-3.123 2.115-1.193.618-2.532 1.117-4.018 1.497s-3.108.569-4.865.569zm-.943-30.227a7.757 7.757 0 00-3.026.586c-.933.39-1.768.96-2.505 1.708s-1.362 1.66-1.871 2.733c-.51 1.074-.873 2.294-1.09 3.66h16.496v-.585a11.236 11.236 0 00-.602-3.01 7.959 7.959 0 00-1.48-2.586c-.651-.76-1.47-1.367-2.457-1.823-.987-.455-2.142-.683-3.465-.683zm44.707-6.28c.63 0 1.258.022 1.888.066.629.043 1.23.108 1.805.195s1.101.179 1.578.276a7.14 7.14 0 011.204.342l-1.106 7.646a31.787 31.787 0 00-7.06-.813c-2.603 0-4.702.542-6.296 1.627-1.595 1.084-2.771 2.592-3.53 4.522v21.995h-7.777V24.38h7.288l.358 5.5c1.432-1.91 3.13-3.412 5.092-4.507 1.963-1.096 4.149-1.643 6.556-1.643zm29.772 21.768l1.334 4.23 9.89-25.347H280L262.17 64.92c-.39.89-.9 1.85-1.53 2.88a14.494 14.494 0 01-2.326 2.88c-.922.889-2.022 1.631-3.302 2.228-1.28.596-2.777.895-4.49.895-.716 0-1.437-.06-2.164-.18a19.925 19.925 0 01-1.936-.406l1.106-6.052a23.225 23.225 0 011.432.065c.282.022.548.038.797.05.25.01.45.015.602.015.76 0 1.437-.222 2.034-.667a8.437 8.437 0 001.578-1.529c.455-.575.83-1.139 1.122-1.692.293-.553.504-.927.635-1.122l2.31-4.36-14.967-33.546h8.59z" fill="#ed4a38"/></g></svg>