<svg width="303" height="319" xmlns="http://www.w3.org/2000/svg"><g transform="rotate(90 139.5 151.5)" fill="none" fill-rule="evenodd"><path d="M169.555 199.438c-1.194.555-2.132.962-2.814 1.221-.681.259-1.593.586-2.736.982-1.142.396-1.984.715-2.527.958-.543.243-1.142.532-1.797.869-.655.337-1.61.759-2.862 1.266a55.6 55.6 0 01-4.362 1.534 63.931 63.931 0 01-5.388 1.403c-1.935.42-4.038.77-6.309 1.048-2.27.279-5.372.527-9.303.746-3.931.217-7.307.227-10.126.029a66.812 66.812 0 01-8.252-1.092c-2.68-.53-5.363-1.367-8.046-2.514-2.683-1.147-4.69-2.11-6.024-2.892-1.334-.781-2.378-1.445-3.131-1.991-.753-.547-2.031-1.607-3.834-3.181-1.803-1.575-4.46-4.509-7.974-8.803-3.513-4.293-6.393-8.567-8.638-12.821a62.868 62.868 0 01-5.186-13.205c-1.21-4.549-1.967-8.29-2.27-11.223-.302-2.933-.46-5.136-.474-6.609a55.193 55.193 0 01.095-4.002c.076-1.195.144-2.025.203-2.49.059-.465.152-1.46.281-2.987.128-1.526.65-4.585 1.567-9.176.917-4.59 1.796-8.134 2.638-10.63.841-2.496 1.899-5.098 3.172-7.807 1.274-2.71 2.162-4.48 2.663-5.31.502-.83 1.274-2.065 2.317-3.704 1.043-1.64 3.553-4.236 7.528-7.789 3.975-3.553 7.148-6.028 9.519-7.425 2.371-1.396 4.549-2.586 6.533-3.571 1.985-.984 4.534-2.021 7.647-3.111 3.113-1.09 7.913-2.188 14.4-3.293s12.008-1.566 16.563-1.383c4.555.183 7.762.477 9.621.88a45.41 45.41 0 015.18 1.433c1.596.552 2.492.867 2.688.945.197.078 1.69.89 4.478 2.434 2.79 1.545 5.505 3.483 8.147 5.813 2.643 2.33 4.718 4.369 6.225 6.116 1.508 1.748 3.305 3.993 5.392 6.736s3.679 4.937 4.775 6.582c1.097 1.645 2.428 3.814 3.995 6.507 1.567 2.693 2.742 4.714 3.523 6.063a141.592 141.592 0 002.37 3.941c.797 1.279 1.984 3.073 3.56 5.382 1.576 2.31 2.764 3.92 3.564 4.831.8.912 1.654 1.75 2.562 2.515 2.165.633 4.227 1.008 6.187 1.127s4.067.12 6.322.006c2.255-.114 4.54-.228 6.858-.341 2.317-.114 5.066-.19 8.246-.227 3.18-.037 5.528.003 7.046.122 1.518.118 2.969.224 4.353.319m-66.748 103.904c.691 2.088 1.611 4.5 2.76 7.237a598.192 598.192 0 013.112 7.544 187.067 187.067 0 012.393 6.204c.669 1.843 1.182 3.373 1.541 4.591.36 1.217.688 2.419.985 3.605m-80.506-27.442c-.006.279-.086 1.019-.241 2.221a396.94 396.94 0 01-.684 4.96 282.43 282.43 0 00-.843 6.417c-.26 2.174-.5 4.373-.718 6.596a377.142 377.142 0 00-.519 5.663 121.17 121.17 0 00-.287 4.401c-.063 1.382-.206 4.49-.43 9.322m-54.429-82.233c-.87.63-2.744 2.077-5.623 4.341-2.879 2.263-6.627 5.484-11.246 9.661-4.619 4.177-7.343 6.66-8.174 7.449m9.354-85.225c-.51.015-1.16-.028-1.951-.129-.79-.101-4.641-.21-11.552-.326-6.91-.115-12.009-.133-15.295-.054-3.286.079-6.159.166-8.619.261m63.749-63.414c-.361-.745-1.759-2.396-4.192-4.955a487.871 487.871 0 01-7.944-8.577c-2.863-3.16-4.89-5.516-6.08-7.071a330.262 330.262 0 00-4.359-5.541m93.292-3.2c.06-.22.163-.866.308-1.938s.256-2.62.334-4.646c.078-2.025.178-3.952.301-5.78.122-1.829.24-3.376.356-4.641.116-1.266.224-2.568.324-3.907s.172-2.688.217-4.048c.045-1.36.071-2.73.079-4.108.008-1.379.036-2.774.084-4.185.048-1.411.13-2.844.247-4.297L136.708 0m66.093 62.699c.131-.154.387-.527.767-1.118a43.8 43.8 0 001.174-1.948 64.21 64.21 0 001.144-2.096c.36-.69.713-1.32 1.061-1.891.349-.571.796-1.406 1.343-2.503a75.42 75.42 0 001.232-2.559c.273-.609.637-1.319 1.092-2.13.454-.81.809-1.432 1.065-1.864.256-.432.506-.86.749-1.285.244-.425 1.374-2.106 3.391-5.043 2.017-2.937 3.367-4.871 4.05-5.804" stroke="#373841" stroke-width="20.723" stroke-linecap="round" stroke-linejoin="round"/><circle stroke="#373841" stroke-width=".1" fill="#373841" fill-rule="nonzero" cx="290.438" cy="135.02" r="14.61"/><path d="M155.835 160.368c-.075.103-.202.341-.379.714-.177.373-.324.687-.441.944-.117.257-.333.586-.648.989s-.574.709-.779.918l-.532.542c-.15.152-.538.508-1.165 1.069-.628.56-1.148.978-1.559 1.251a11.5 11.5 0 01-1.134.673c-.345.175-.527.27-.545.286-.018.016-.787.248-2.308.696-1.52.448-2.965.756-4.333.924a145.82 145.82 0 01-3.267.372c-.81.08-1.396.134-1.759.162-.364.028-1.594.16-3.691.394-2.097.235-3.42.397-3.971.487-.55.09-1.126.174-1.727.255-.601.08-.992.133-1.173.16-.18.026-.601.073-1.264.141-.663.068-1.403.118-2.22.149a20.41 20.41 0 01-2.587-.072c-.907-.08-1.661-.214-2.262-.399a12.899 12.899 0 01-2.714-1.181c-.265-.16-.482-.298-.651-.416a3.2 3.2 0 00-.398-.248c-.097-.048-.565-.463-1.403-1.246a20.32 20.32 0 01-2.303-2.548 40.59 40.59 0 01-1.669-2.331c-.416-.64-.675-1.05-.776-1.231-.101-.182-.353-.764-.754-1.747-.4-.983-.766-1.978-1.097-2.986-.33-1.009-.544-1.75-.64-2.223a20.896 20.896 0 01-.209-1.155 75.364 75.364 0 00-.106-.716c-.027-.181-.07-.436-.128-.763-.058-.327-.108-1.117-.151-2.372a51.736 51.736 0 01-.029-3.118c.023-.823.067-1.514.13-2.071.063-.558.137-1.058.224-1.499.087-.441.19-1.11.31-2.004.12-.895.2-1.492.243-1.789.043-.298.179-.923.406-1.876l.361-1.514c.015-.057.101-.31.259-.758a119.58 119.58 0 00.961-2.855c.121-.388.298-.887.529-1.497.23-.61.4-1.042.508-1.296.108-.253.351-.77.729-1.55.379-.78.594-1.229.645-1.346.052-.117.13-.31.234-.582.103-.271.283-.678.538-1.219.256-.54.437-.905.543-1.092.106-.187.252-.498.438-.933.187-.434.3-.705.338-.814.039-.109.16-.36.362-.754.203-.394.37-.704.501-.931.131-.227.214-.362.249-.406.035-.044.261-.4.678-1.069.417-.669.941-1.464 1.573-2.385.631-.921 1.024-1.46 1.177-1.615.153-.155.644-.528 1.474-1.117l1.378-.977c.088-.063.96-.442 2.615-1.137 1.655-.695 3.118-1.194 4.388-1.497a22.501 22.501 0 013.622-.579c1.145-.082 2.028-.115 2.651-.098.622.017 1.18.061 1.676.133a11.42 11.42 0 011.565.35c.55.161.835.248.857.261.022.012.578.214 1.668.605 1.09.391 1.835.686 2.234.884.4.198.698.353.895.466.198.113.447.242.748.386.301.144.855.432 1.662.864.806.433 1.351.72 1.635.863.285.143.602.31.951.5.35.19.743.431 1.181.723.438.291 1.005.664 1.701 1.119.696.455 1.269.852 1.719 1.191.45.339.985.748 1.607 1.228s1.195.979 1.718 1.496a26.226 26.226 0 011.716 1.902c.621.75 1.083 1.342 1.384 1.774.301.433.658.974 1.071 1.624.413.65.73 1.216.951 1.699.221.483.349.763.383.84a38.025 38.025 0 011.028 3.182c.24.856.515 1.809.828 2.859.312 1.05.555 1.827.73 2.334.175.507.295.845.36 1.014.065.17.205.607.418 1.313.214.707.379 1.254.494 1.643.115.39.215.709.299.959.085.25.146.454.185.611.04.157.093.478.162.963s.117 1.045.144 1.682c.027.636.043.99.048 1.06.004.07-.019.429-.069 1.075-.05.646-.16 1.376-.332 2.191a19.157 19.157 0 01-.644 2.339c-.258.744-.408 1.171-.449 1.281-.041.11-.152.346-.332.707-.18.36-.342.665-.488.914-.146.249-.375.599-.686 1.051-.31.452-.941 1.293-1.892 2.523-.95 1.23-1.5 1.932-1.652 2.103l-.904 1.029c-.452.514-1.37 1.429-2.754 2.744-1.383 1.315-2.431 2.239-3.143 2.771-.711.532-1.255.921-1.632 1.167-.376.246-.762.473-1.158.68a19.12 19.12 0 01-1.022.502c-.285.128-.556.252-.813.373-.257.12-.624.29-1.101.507-.477.216-.89.393-1.241.53-.351.137-.856.309-1.515.517a89.32 89.32 0 01-2.001.604 26.46 26.46 0 01-1.541.41c-.35.077-1.144.21-2.381.396-1.237.187-2.818.276-4.744.269-1.926-.007-3.19-.057-3.79-.15-.6-.094-1.004-.154-1.209-.181a17.958 17.958 0 01-.98-.174c-.45-.09-1.02-.233-1.714-.431a25.996 25.996 0 01-2.51-.89c-.98-.395-1.75-.751-2.306-1.068a10.902 10.902 0 01-1.708-1.229c-.583-.502-1.034-.983-1.353-1.442-.32-.459-.533-1.037-.642-1.735-.109-.699-.083-1.334.077-1.906.16-.573.347-.997.561-1.272.213-.275.458-.526.733-.751.275-.225 1.537-.646 3.785-1.263 2.248-.616 3.712-.968 4.391-1.055.679-.087 2.134-.276 4.366-.566 2.232-.29 4.063-.564 5.492-.821a52.787 52.787 0 004.285-.959c1.428-.383 2.585-.756 3.472-1.12a13.303 13.303 0 002.565-1.408c.824-.575 1.436-1.077 1.836-1.506.4-.428.809-.91 1.226-1.444.417-.534.781-2.001 1.093-4.402-.1-.27-1.148-.329-3.145-.179-1.996.15-3.872.52-5.628 1.112a260.011 260.011 0 01-6.662 2.12 70.272 70.272 0 01-8.322 1.993c-2.863.506-5.51.573-7.941.2-.045-.162 2.053-1.125 6.296-2.89 4.243-1.765 7.77-3.165 10.583-4.2 2.813-1.036 4.699-1.804 5.657-2.304.958-.5 1.591-.856 1.899-1.065.307-.21.601-.596.881-1.159-.093-.2-1.394-.302-3.901-.308a151.48 151.48 0 00-6.907.126c-2.096.09-3.767.059-5.013-.095-1.246-.153-1.928-.266-2.045-.339a1.012 1.012 0 01-.275-.236.567.567 0 01-.111-.322c.148-.24 2.761-1.063 7.839-2.468a856.28 856.28 0 0112.544-3.388c3.284-.853 5.512-1.601 6.683-2.243-.017-.144-1.384-.155-4.099-.033-2.715.121-5.71.316-8.985.583-3.275.267-5.58.366-6.913.296-1.333-.07-2.2-.175-2.602-.313-.401-.139-.685-.323-.851-.553.047-.15.17-.319.37-.506.2-.187 1.59-.84 4.169-1.96 2.58-1.12 4.66-2.227 6.242-3.322-.085-.18-2.499-.344-7.241-.494-4.743-.15-7.477-.388-8.203-.716.039-.213.938-.624 2.698-1.235 1.76-.61 3.422-1.18 4.989-1.706 1.567-.527 2.607-.935 3.121-1.223.514-.289.857-.539 1.028-.751.171-.212.254-.345.249-.4-.006-.054-.1-.148-.281-.283-.18-.134-1.598-.217-4.251-.25-2.653-.033-5.71.298-9.172.993.187.012.276.025.267.038-.01.013.486-.058 1.485-.215 1-.157 2.184-.434 3.552-.831 1.369-.398 2.397-.817 3.086-1.257-.003-.192-2.076.079-6.217.812-.21.169-.388.32-.537.454a2.837 2.837 0 01-.614.399c-.26.132-.471.236-.634.311-.163.075-.957.398-2.381.968s-2.869 1.137-4.335 1.702a66.29 66.29 0 00-1.595.736c-.553.263-1.134.622-1.744 1.076-.61.455-1.112.866-1.506 1.235-.395.37-.779.775-1.153 1.216-.373.441-.65.786-.828 1.033a7.077 7.077 0 00-.31.448c-.027.05-.264.438-.711 1.161a84.89 84.89 0 00-1.324 2.22 41.547 41.547 0 00-.962 1.743c-.205.405-.386.821-.541 1.247-.155.426-.246.667-.274.722-.028.055-.12.342-.278.863-.157.52-.285 1.043-.382 1.569a52.26 52.26 0 00-.262 1.541l-.206 1.353c-.061.4-.128.81-.199 1.228a16.29 16.29 0 00-.172 1.48 20.15 20.15 0 00-.042 1.925c.015.715.049 1.312.1 1.793.051.481.134.985.248 1.511.114.526.189.889.225 1.089.037.2.162.579.377 1.136-.06-.015-.134-.134-.223-.355-.09-.22-.188-.587-.297-1.1l-.221-1.042a27.677 27.677 0 01-.348-2.408 29.557 29.557 0 01-.102-1.169 13.702 13.702 0 00-.123-1.086 14.228 14.228 0 01-.129-1.444c-.02-.5-.02-1.003-.002-1.508.019-.505.025-.779.018-.823-.007-.043.043-.457.149-1.24.106-.783.26-1.589.464-2.418.203-.83.364-1.417.483-1.763.119-.345.25-.717.394-1.115.143-.398.266-.721.368-.97.103-.249.307-.727.612-1.436.306-.708.556-1.246.749-1.613.193-.367.625-1.165 1.298-2.394.673-1.228 1.176-2.096 1.509-2.605l.554-.844c.036-.053.27-.342.702-.867.432-.525.779-.924 1.04-1.199.262-.274.645-.616 1.148-1.027.504-.411 1.02-.781 1.549-1.11.53-.328.984-.582 1.364-.763.38-.18 1.04-.46 1.977-.841a42.11 42.11 0 012.561-.953 23.47 23.47 0 011.941-.566c.523-.123.962-.232 1.315-.327.353-.096.915-.207 1.687-.334.772-.127 2.046-.246 3.823-.358 1.776-.112 2.944-.17 3.505-.175.56-.004.956-.009 1.185-.014.229-.006.856.004 1.882.03 1.026.025 1.807.056 2.342.091.535.035.97.077 1.302.124l.596.085c.064.01.467.059 1.209.146a24.984 24.984 0 013.56.647c.503.13.768.196.795.198a15 15 0 01.823.27c.521.178 1.092.442 1.712.792.62.35.946.532.979.547.033.016.238.166.617.451.38.285.934.883 1.664 1.794.73.91 1.32 1.73 1.77 2.456.45.727.756 1.295.918 1.703.161.408.287.74.378.994" stroke="#FAC141" stroke-width="20.93" stroke-linecap="round" stroke-linejoin="round"/></g></svg>