<svg height="76" width="301" xmlns="http://www.w3.org/2000/svg"><g fill="none" fill-rule="evenodd"><path d="M137.511 33.608c0 9.232-3.136 16.313-8.195 20.84l7.411 9.309H126.51l-4.173-5.135c-2.783 1.062-5.843 1.594-9.08 1.594C99.446 60.216 89 50.478 89 33.608 89 16.662 99.446 7 113.256 7c13.733 0 24.255 9.662 24.255 26.608zm-28.05 7.891h9.308l3.845 4.932c2.403-2.858 3.794-7.183 3.794-12.823 0-10.977-5.21-16.92-13.152-16.92-7.968 0-13.153 5.943-13.153 16.92 0 10.977 5.185 16.92 13.153 16.92.986 0 1.947-.1 2.832-.278zm60.905 1.467c.026 5.21-3.54 7.942-7.41 7.942-4.073 0-6.703-2.858-6.728-7.436V20.658h-10.775v24.736c.025 9.08 5.337 14.62 13.152 14.62 5.843 0 10.041-3.01 11.787-7.563h.404v7.056h10.345V20.658h-10.775zm37.08 17.3c-11.964 0-19.274-7.689-19.274-20.006 0-11.989 7.411-20.108 18.843-20.108 10.269 0 18.261 6.526 18.261 19.728v2.96H198.82v.025c0 5.792 3.415 9.358 8.802 9.358 3.592 0 6.374-1.543 7.462-4.502l9.965.658c-1.518 7.208-7.993 11.887-17.604 11.887zm-8.626-24.104h16.314c-.025-4.628-3.263-7.967-7.942-7.967-4.78 0-8.144 3.541-8.372 7.967zm33.488 23.345h10.774V37.528c0-4.78 3.49-8.068 8.246-8.068 1.492 0 3.54.253 4.552.582V20.48c-.96-.228-2.301-.38-3.389-.38-4.35 0-7.916 2.53-9.333 7.335h-.404v-6.778h-10.446zM269.286 74c8.017 0 12.292-4.072 14.467-10.294l15.1-42.997-11.407-.051-8.12 28.53h-.404l-8.043-28.53h-11.331l13.936 39.962-.632 1.644c-1.518 3.516-4.123 3.769-7.917 2.58l-2.428 8.068c1.543.633 4.047 1.088 6.779 1.088z" fill="#ed4a38"/><path d="M58.72 36.72c7.033-7.033 7.033-18.437 0-25.47-7.033-7.033-18.437-7.033-25.47 0L13 31.5V57h25.5zM46 24L4 66m46.5-21H25" stroke="#ed4a38" stroke-linecap="round" stroke-linejoin="round" stroke-width="6"/></g></svg>