<svg height="76" viewBox="0 0 301 76" width="301" xmlns="http://www.w3.org/2000/svg"><g fill="none" fill-rule="evenodd"><path d="m137.511136 33.6077765c0 9.2317856-3.136278 16.3137033-8.19479 20.8410721l7.410721 9.3076633h-10.218196l-4.173273-5.1343903c-2.782182 1.0622876-5.842582 1.5934314-9.08003 1.5934314-13.8097394 0-24.255568-9.7376368-24.255568-26.6077765 0-16.9460173 10.4458286-26.6077765 24.255568-26.6077765 13.733862 0 24.255568 9.6617592 24.255568 26.6077765zm-28.049452 7.8912797h9.307663l3.84447 4.9320499c2.402793-2.8580597 3.793884-7.183088 3.793884-12.8233296 0-10.9769724-5.210268-16.9207248-13.152133-16.9207248-7.967157 0-13.152133 5.9437524-13.152133 16.9207248 0 10.9769725 5.184976 16.9207248 13.152133 16.9207248.98641 0 1.947528-.1011702 2.832767-.2782182zm60.904545 1.4669687c.025293 5.210268-3.540959 7.9418649-7.410721 7.9418649-4.072103 0-6.702529-2.8580597-6.727822-7.4360136v-22.8138921h-10.774632v24.7361269c.025293 9.0800302 5.336731 14.6191015 13.152133 14.6191015 5.842582 0 10.041148-3.009815 11.786335-7.5624764h.404681v7.0566252h10.344658v-38.8493772h-10.774632zm37.07894 17.3001133c-11.963382 0-19.272933-7.6889393-19.272933-20.0064176 0-11.9886749 7.410721-20.1075877 18.842959-20.1075877 10.268781 0 18.261231 6.5254813 18.261231 19.7281993v2.9592299h-26.456021v.0252926c0 5.7919969 3.414496 9.3582484 8.801812 9.3582484 3.591544 0 6.373726-1.5428464 7.461306-4.5020763l9.96527.6576066c-1.517554 7.2083806-7.99245 11.8875048-17.603624 11.8875048zm-8.624764-24.1038128h16.313703c-.025292-4.6285391-3.26274-7.9671574-7.941865-7.9671574-4.780294 0-8.144205 3.5409588-8.371838 7.9671574zm33.487394 23.3450359h10.774632v-21.9792375c0-4.7802944 3.490374-8.0683277 8.245376-8.0683277 1.492261 0 3.540959.2529257 4.552661.581729v-9.5605889c-.961117-.2276331-2.301623-.3793884-3.389203-.3793884-4.350321 0-7.916573 2.5292563-9.332956 7.3348433h-.404681v-6.778407h-10.445829zm36.977757 14.4926387c8.017742 0 12.292185-4.0721027 14.467346-10.2940732l15.09966-42.9973575-11.406946-.0505852-8.118913 28.5300114h-.404681l-8.043035-28.5300114h-11.331068l13.936202 39.96225-.632314 1.6440166c-1.517554 3.5156662-4.122688 3.7685919-7.916572 2.5798414l-2.428086 8.0683277c1.542846.6323141 4.04681 1.0875802 6.778407 1.0875802z" fill="#ed4a38"/><g stroke="#ed4a38" stroke-linecap="round" stroke-linejoin="round" stroke-width="6" transform="translate(4 3)"><path d="m54.72 33.72c7.0333463-7.0333463 7.0333463-18.4366537 0-25.47-7.0333463-7.03334629-18.4366537-7.03334629-25.47 0l-20.25 20.25v25.5h25.5z"/><path d="m42 21-42 42"/><path d="m46.5 42h-25.5"/></g></g></svg>