<?xml version="1.0" encoding="UTF-8"?>
<svg width="303px" height="319px" viewBox="0 0 303 319" version="1.1" xmlns="http://www.w3.org/2000/svg" xmlns:xlink="http://www.w3.org/1999/xlink">
    <!-- Generator: Sketch 43.2 (39069) - http://www.bohemiancoding.com/sketch -->
    <title>query-mark</title>
    <desc>Created with Sketch.</desc>
    <defs></defs>
    <g id="Page-1" stroke="none" stroke-width="1" fill="none" fill-rule="evenodd">
        <g id="query-mark">
            <g id="Group" transform="translate(151.500000, 165.000000) rotate(90.000000) translate(-151.500000, -165.000000) translate(-1.500000, 25.500000)">
                <path d="M169.555,199.438 C168.361,199.993333 167.423,200.400333 166.741,200.659 C166.059667,200.917667 165.147667,201.245 164.005,201.641 C162.863,202.037 162.020667,202.356333 161.478,202.599 C160.934667,202.841667 160.335667,203.131333 159.681,203.468 C159.025667,203.804667 158.071667,204.226667 156.819,204.734 C155.567,205.242 154.113,205.753333 152.457,206.268 C150.801,206.782667 149.005,207.250333 147.069,207.671 C145.133667,208.091 143.030667,208.440333 140.76,208.719 C138.489333,208.997667 135.388333,209.246333 131.457,209.465 C127.525667,209.682333 124.150333,209.692 121.331,209.494 C118.511,209.295333 115.760333,208.931333 113.079,208.402 C110.398333,207.872667 107.716333,207.034667 105.033,205.888 C102.350333,204.741333 100.342333,203.777333 99.009,202.996 C97.675,202.214667 96.6313333,201.551 95.878,201.005 C95.1246667,200.458333 93.8466667,199.398 92.044,197.824 C90.2413333,196.249333 87.5833333,193.315 84.07,189.021 C80.5566667,184.727667 77.6773333,180.454 75.432,176.2 C73.186,171.945333 71.4573333,167.543667 70.246,162.995 C69.0353333,158.446333 68.2786667,154.705333 67.976,151.772 C67.674,148.838667 67.516,146.635667 67.502,145.163 C67.4886667,143.690333 67.5203333,142.356333 67.597,141.161 C67.673,139.965667 67.7406667,139.135667 67.8,138.671 C67.8586667,138.206333 67.9523333,137.210667 68.081,135.684 C68.209,134.158 68.7313333,131.099333 69.648,126.508 C70.5646667,121.917333 71.444,118.374 72.286,115.878 C73.1273333,113.382 74.1846667,110.779667 75.458,108.071 C76.732,105.361667 77.6196667,103.591667 78.121,102.761 C78.623,101.930333 79.3953333,100.695667 80.438,99.057 C81.4813333,97.4176667 83.9906667,94.8213333 87.966,91.268 C91.9406667,87.7146667 95.1136667,85.2396667 97.485,83.843 C99.8563333,82.447 102.034,81.2566667 104.018,80.272 C106.002667,79.288 108.551667,78.251 111.665,77.161 C114.778333,76.071 119.578333,74.9733333 126.065,73.868 C132.551667,72.7633333 138.072667,72.3023333 142.628,72.485 C147.183333,72.6683333 150.390333,72.9616667 152.249,73.365 C154.107,73.769 155.833667,74.2466667 157.429,74.798 C159.025,75.35 159.921,75.665 160.117,75.743 C160.313667,75.821 161.806333,76.6323333 164.595,78.177 C167.384333,79.7223333 170.1,81.66 172.742,83.99 C175.384667,86.32 177.459667,88.3586667 178.967,90.106 C180.475,91.854 182.272333,94.0993333 184.359,96.842 C186.446333,99.5846667 188.038,101.778667 189.134,103.424 C190.230667,105.069333 191.562333,107.238333 193.129,109.931 C194.696333,112.623667 195.870667,114.644667 196.652,115.994 C197.434,117.342667 198.224,118.656333 199.022,119.935 C199.819333,121.213667 201.006,123.007667 202.582,125.317 C204.158,127.626333 205.346,129.236667 206.146,130.148 C206.946,131.06 207.8,131.898333 208.708,132.663 C210.872667,133.295667 212.935,133.671333 214.895,133.79 C216.855,133.908667 218.962333,133.910667 221.217,133.796 C223.471667,133.682 225.757667,133.568333 228.075,133.455 C230.392333,133.341 233.141,133.265333 236.321,133.228 C239.500333,133.190667 241.849,133.231333 243.367,133.35 C244.885,133.468 246.336,133.574333 247.72,133.669" id="STROKE_aa8edbdf-52b1-4a15-baef-64d24ac8ca18" stroke="#373841" stroke-width="20.723" stroke-linecap="round" stroke-linejoin="round"></path>
                <path d="M180.972,237.573 C181.663333,239.661 182.583333,242.073333 183.732,244.81 C184.880667,247.546 185.918,250.060667 186.844,252.354 C187.770667,254.647333 188.568333,256.715333 189.237,258.558 C189.905667,260.400667 190.419333,261.931 190.778,263.149 C191.137333,264.366333 191.465667,265.568 191.763,266.754" id="STROKE_f9846043-7fc7-401f-b84d-8713c813f2a4" stroke="#373841" stroke-width="20.723" stroke-linecap="round" stroke-linejoin="round"></path>
                <path d="M111.257,239.312 C111.251,239.590667 111.170667,240.331 111.016,241.533 C110.860667,242.735 110.632667,244.388333 110.332,246.493 C110.030667,248.597 109.749667,250.736 109.489,252.91 C109.228333,255.084 108.989,257.282667 108.771,259.506 C108.553,261.729333 108.38,263.617 108.252,265.169 C108.124,266.721 108.028333,268.188 107.965,269.57 C107.902333,270.952 107.759,274.059333 107.535,278.892" id="STROKE_4f4763aa-cd44-4112-b44e-24ab01120fb8" stroke="#373841" stroke-width="20.723" stroke-linecap="round" stroke-linejoin="round"></path>
                <path d="M53.106,196.659 C52.2366667,197.289 50.3623333,198.736 47.483,201 C44.6043333,203.263333 40.8556667,206.483667 36.237,210.661 C31.6183333,214.837667 28.8936667,217.320667 28.063,218.11" id="STROKE_73796926-1be8-478a-97dc-84baebe43cd1" stroke="#373841" stroke-width="20.723" stroke-linecap="round" stroke-linejoin="round"></path>
                <path d="M37.417,132.885 C36.907,132.900333 36.2566667,132.857333 35.466,132.756 C34.6753333,132.654667 30.8246667,132.546 23.914,132.43 C17.0033333,132.314667 11.905,132.296667 8.619,132.376 C5.333,132.454667 2.46,132.541667 0,132.637" id="STROKE_90e31fae-9346-4555-9e6f-96d510812ea8" stroke="#373841" stroke-width="20.723" stroke-linecap="round" stroke-linejoin="round"></path>
                <path d="M63.749,69.223 C63.3876667,68.4783333 61.9903333,66.8266667 59.557,64.268 C57.1236667,61.7093333 54.4756667,58.8503333 51.613,55.691 C48.7503333,52.5316667 46.7236667,50.1746667 45.533,48.62 C44.3416667,47.0653333 42.8886667,45.2183333 41.174,43.079" id="STROKE_a027b495-6a96-4b3e-a44f-ee722a87fadd" stroke="#373841" stroke-width="20.723" stroke-linecap="round" stroke-linejoin="round"></path>
                <path d="M134.466,39.879 C134.526,39.659 134.628667,39.013 134.774,37.941 C134.918667,36.869 135.03,35.3203333 135.108,33.295 C135.186,31.2696667 135.286333,29.343 135.409,27.515 C135.531,25.6863333 135.649667,24.1393333 135.765,22.874 C135.881,21.608 135.989,20.3056667 136.089,18.967 C136.189,17.6283333 136.261333,16.279 136.306,14.919 C136.350667,13.5583333 136.377,12.189 136.385,10.811 C136.393,9.43233333 136.421,8.03733333 136.469,6.626 C136.517,5.21466667 136.599333,3.78233333 136.716,2.329 L136.708,0" id="STROKE_4767c2fe-cebc-4ede-9bb6-72930b663b6b" stroke="#373841" stroke-width="20.723" stroke-linecap="round" stroke-linejoin="round"></path>
                <path d="M202.801,62.699 C202.932333,62.545 203.188,62.1723333 203.568,61.581 C203.947333,60.9896667 204.338667,60.3403333 204.742,59.633 C205.144667,58.9256667 205.526,58.227 205.886,57.537 C206.245333,56.847 206.599,56.2166667 206.947,55.646 C207.295667,55.0746667 207.743333,54.2403333 208.29,53.143 C208.837333,52.0463333 209.248,51.1933333 209.522,50.584 C209.795333,49.9753333 210.159333,49.2653333 210.614,48.454 C211.068,47.6433333 211.423,47.022 211.679,46.59 C211.935,46.158 212.184667,45.7296667 212.428,45.305 C212.672,44.8796667 213.802333,43.1986667 215.819,40.262 C217.836333,37.3253333 219.186333,35.3906667 219.869,34.458" id="STROKE_88a805b8-d6f9-4c55-81bf-276c14d2e2a1" stroke="#373841" stroke-width="20.723" stroke-linecap="round" stroke-linejoin="round"></path>
                <circle id="STROKE_fdb8b156-540b-4138-9b5f-0f70b8717ddc" stroke="#373841" stroke-width="0.1" fill="#373841" fill-rule="nonzero" cx="290.438" cy="135.02" r="14.61"></circle>
                <path d="M155.835,160.368 C155.759667,160.471333 155.633333,160.709333 155.456,161.082 C155.279333,161.454667 155.132333,161.769333 155.015,162.026 C154.898333,162.282667 154.682333,162.612333 154.367,163.015 C154.052333,163.417667 153.792667,163.723667 153.588,163.933 C153.383333,164.143 153.206,164.323667 153.056,164.475 C152.906667,164.627 152.518333,164.983333 151.891,165.544 C151.263,166.104667 150.743333,166.521667 150.332,166.795 C149.920667,167.068333 149.542667,167.292667 149.198,167.468 C148.852667,167.642667 148.671,167.738 148.653,167.754 C148.635,167.77 147.865667,168.002 146.345,168.45 C144.824333,168.898 143.38,169.206 142.012,169.374 C140.644,169.542 139.555,169.666 138.745,169.746 C137.935667,169.826 137.349333,169.88 136.986,169.908 C136.622,169.936 135.391667,170.067333 133.295,170.302 C131.198333,170.536667 129.874667,170.699 129.324,170.789 C128.774,170.878333 128.198333,170.963333 127.597,171.044 C126.995667,171.124 126.604667,171.177333 126.424,171.204 C126.244,171.23 125.822667,171.277 125.16,171.345 C124.496667,171.413 123.756667,171.462667 122.94,171.494 C122.123333,171.526 121.261,171.502 120.353,171.422 C119.445667,171.341333 118.691667,171.208333 118.091,171.023 C117.490333,170.837667 116.954333,170.634333 116.483,170.413 C116.011,170.191667 115.642333,170.001333 115.377,169.842 C115.111667,169.682667 114.894667,169.544 114.726,169.426 C114.558,169.308 114.425333,169.225333 114.328,169.178 C114.230667,169.13 113.763,168.714667 112.925,167.932 C112.086333,167.148667 111.318667,166.299333 110.622,165.384 C109.926,164.469333 109.369667,163.692333 108.953,163.053 C108.537,162.413667 108.278333,162.003333 108.177,161.822 C108.075667,161.64 107.824333,161.057667 107.423,160.075 C107.022333,159.092333 106.656667,158.097 106.326,157.089 C105.995333,156.080333 105.782,155.339333 105.686,154.866 C105.589333,154.392667 105.519667,154.007667 105.477,153.711 C105.434333,153.415 105.399,153.176333 105.371,152.995 C105.343667,152.813667 105.301,152.559333 105.243,152.232 C105.185,151.905333 105.134667,151.114667 105.092,149.86 C105.049333,148.604667 105.039667,147.565333 105.063,146.742 C105.086333,145.918667 105.129667,145.228333 105.193,144.671 C105.255667,144.113 105.330333,143.613333 105.417,143.172 C105.503667,142.730667 105.607,142.062667 105.727,141.168 C105.846333,140.272667 105.927333,139.676333 105.97,139.379 C106.013333,139.081 106.148667,138.455667 106.376,137.503 C106.602667,136.550333 106.723,136.045667 106.737,135.989 C106.751667,135.932333 106.838,135.679667 106.996,135.231 C107.154,134.782333 107.323,134.291333 107.503,133.758 C107.683667,133.224 107.835,132.763333 107.957,132.376 C108.078333,131.988 108.254667,131.489 108.486,130.879 C108.716667,130.269 108.886,129.837 108.994,129.583 C109.102,129.329667 109.345,128.813 109.723,128.033 C110.101667,127.253 110.316667,126.804333 110.368,126.687 C110.42,126.570333 110.498,126.376333 110.602,126.105 C110.705333,125.833667 110.884667,125.427333 111.14,124.886 C111.396,124.345333 111.577,123.981333 111.683,123.794 C111.789,123.606667 111.935,123.295667 112.121,122.861 C112.307667,122.427 112.420333,122.155667 112.459,122.047 C112.497667,121.938333 112.618333,121.687 112.821,121.293 C113.023667,120.899 113.190667,120.588667 113.322,120.362 C113.453333,120.135333 113.536333,120 113.571,119.956 C113.606333,119.912 113.832333,119.555667 114.249,118.887 C114.665667,118.218333 115.19,117.423333 115.822,116.502 C116.453333,115.580667 116.845667,115.042333 116.999,114.887 C117.151667,114.731667 117.643,114.359333 118.473,113.77 C119.303,113.181333 119.762333,112.855667 119.851,112.793 C119.939,112.729667 120.810667,112.350667 122.466,111.656 C124.121333,110.961333 125.584,110.462333 126.854,110.159 C128.124,109.855 129.331333,109.662 130.476,109.58 C131.620667,109.498 132.504333,109.465333 133.127,109.482 C133.749,109.498667 134.307667,109.543 134.803,109.615 C135.297667,109.687 135.819333,109.803667 136.368,109.965 C136.917333,110.126333 137.203,110.213333 137.225,110.226 C137.247,110.238 137.803,110.439667 138.893,110.831 C139.983667,111.222333 140.728333,111.517 141.127,111.715 C141.526333,111.913 141.824667,112.068333 142.022,112.181 C142.22,112.294333 142.469333,112.423 142.77,112.567 C143.071333,112.711 143.625333,112.999 144.432,113.431 C145.238,113.863667 145.783,114.151333 146.067,114.294 C146.351667,114.436667 146.668667,114.603333 147.018,114.794 C147.367333,114.984 147.761,115.225 148.199,115.517 C148.637,115.808333 149.204,116.181333 149.9,116.636 C150.596,117.090667 151.169,117.487667 151.619,117.827 C152.068333,118.165667 152.604,118.575 153.226,119.055 C153.848,119.535 154.420667,120.033667 154.944,120.551 C155.466667,121.068333 156.038667,121.702333 156.66,122.453 C157.281333,123.203667 157.742667,123.795 158.044,124.227 C158.345333,124.659667 158.702333,125.201 159.115,125.851 C159.527667,126.501 159.844667,127.067333 160.066,127.55 C160.287333,128.032667 160.415,128.312667 160.449,128.39 C160.483,128.467333 160.603,128.803 160.809,129.397 C161.015,129.991 161.237667,130.716 161.477,131.572 C161.716333,132.428 161.992333,133.381 162.305,134.431 C162.617,135.480333 162.860333,136.258333 163.035,136.765 C163.210333,137.271667 163.330333,137.609667 163.395,137.779 C163.460333,137.948333 163.599667,138.386 163.813,139.092 C164.027,139.798667 164.191667,140.346333 164.307,140.735 C164.422333,141.124333 164.522,141.444 164.606,141.694 C164.690667,141.944667 164.752333,142.148333 164.791,142.305 C164.830333,142.462333 164.884333,142.783333 164.953,143.268 C165.021667,143.752667 165.069667,144.313333 165.097,144.95 C165.124333,145.586 165.140333,145.939333 165.145,146.01 C165.149,146.080667 165.126,146.439 165.076,147.085 C165.026,147.731 164.915333,148.461333 164.744,149.276 C164.572667,150.091333 164.358,150.871 164.1,151.615 C163.842,152.359 163.692333,152.786 163.651,152.896 C163.609667,153.006667 163.499,153.242333 163.319,153.603 C163.139667,153.963667 162.977,154.268333 162.831,154.517 C162.685,154.765667 162.456333,155.116 162.145,155.568 C161.834333,156.02 161.203667,156.861 160.253,158.091 C159.303,159.321667 158.752333,160.022667 158.601,160.194 C158.450333,160.366 158.149,160.709 157.697,161.223 C157.245,161.737 156.327,162.651667 154.943,163.967 C153.559667,165.282333 152.512,166.206 151.8,166.738 C151.088667,167.27 150.544667,167.659 150.168,167.905 C149.792,168.151 149.406,168.377667 149.01,168.585 C148.613333,168.792333 148.272667,168.959667 147.988,169.087 C147.703333,169.215 147.432333,169.339333 147.175,169.46 C146.917667,169.580667 146.550667,169.749667 146.074,169.967 C145.597333,170.183 145.183667,170.359667 144.833,170.497 C144.481667,170.633667 143.976667,170.806 143.318,171.014 C142.659333,171.221333 141.992333,171.422667 141.317,171.618 C140.641,171.814 140.127333,171.950667 139.776,172.028 C139.425333,172.105333 138.631667,172.237333 137.395,172.424 C136.158333,172.610667 134.577,172.700333 132.651,172.693 C130.725,172.686333 129.461667,172.636333 128.861,172.543 C128.260333,172.449 127.857333,172.388667 127.652,172.362 C127.447333,172.334667 127.120667,172.276667 126.672,172.188 C126.222667,172.098667 125.651333,171.955 124.958,171.757 C124.264667,171.559 123.428,171.262333 122.448,170.867 C121.467333,170.471667 120.698667,170.115667 120.142,169.799 C119.586,169.482333 119.016667,169.072667 118.434,168.57 C117.851333,168.068 117.400333,167.587333 117.081,167.128 C116.761667,166.669333 116.547667,166.091 116.439,165.393 C116.330333,164.694333 116.356,164.059 116.516,163.487 C116.676,162.913667 116.863,162.489667 117.077,162.215 C117.290333,161.939667 117.534667,161.689333 117.81,161.464 C118.085333,161.238667 119.347,160.817667 121.595,160.201 C123.843,159.585 125.306667,159.233333 125.986,159.146 C126.664667,159.058667 128.12,158.87 130.352,158.58 C132.584,158.29 134.414667,158.016333 135.844,157.759 C137.272667,157.501667 138.701,157.182 140.129,156.8 C141.557,156.417333 142.714333,156.044 143.601,155.68 C144.487667,155.316 145.342667,154.846667 146.166,154.272 C146.99,153.696667 147.602,153.194667 148.002,152.766 C148.402,152.338 148.810667,151.856667 149.228,151.322 C149.644667,150.788 150.009,149.320667 150.321,146.92 C150.221,146.650667 149.172667,146.591 147.176,146.741 C145.18,146.891 143.304,147.261667 141.548,147.853 C139.792,148.444333 137.571333,149.151 134.886,149.973 C132.2,150.795 129.426,151.459333 126.564,151.966 C123.701333,152.472 121.054333,152.538667 118.623,152.166 C118.577667,152.004 120.676333,151.040667 124.919,149.276 C129.161667,147.511333 132.689333,146.111333 135.502,145.076 C138.315333,144.04 140.201,143.272 141.159,142.772 C142.117,142.271333 142.75,141.916333 143.058,141.707 C143.365333,141.497667 143.659,141.111333 143.939,140.548 C143.845667,140.348667 142.545333,140.246 140.038,140.24 C137.53,140.233333 135.227667,140.275333 133.131,140.366 C131.035,140.456667 129.364,140.425 128.118,140.271 C126.872,140.117667 126.190333,140.004667 126.073,139.932 C125.955,139.859333 125.863333,139.780667 125.798,139.696 C125.732,139.611333 125.695,139.504 125.687,139.374 C125.835,139.134 128.448,138.311333 133.526,136.906 C138.604667,135.500667 142.786,134.371333 146.07,133.518 C149.354,132.664667 151.581667,131.917 152.753,131.275 C152.735667,131.131 151.369333,131.12 148.654,131.242 C145.938667,131.363333 142.943667,131.557667 139.669,131.825 C136.393667,132.092333 134.089333,132.191 132.756,132.121 C131.422667,132.050333 130.555333,131.946 130.154,131.808 C129.752667,131.669333 129.469,131.485 129.303,131.255 C129.350333,131.105 129.473667,130.936333 129.673,130.749 C129.873,130.561667 131.262667,129.908333 133.842,128.789 C136.421333,127.669 138.502,126.561667 140.084,125.467 C139.998667,125.287667 137.585,125.123 132.843,124.973 C128.100333,124.823667 125.366,124.585 124.64,124.257 C124.678667,124.044333 125.578,123.632667 127.338,123.022 C129.097333,122.411333 130.760333,121.842667 132.327,121.316 C133.893667,120.788667 134.934,120.381 135.448,120.093 C135.962,119.804333 136.304667,119.554 136.476,119.342 C136.647333,119.13 136.730333,118.996667 136.725,118.942 C136.719,118.888 136.625333,118.793667 136.444,118.659 C136.263333,118.525 134.846333,118.441667 132.193,118.409 C129.539667,118.376333 126.482333,118.707333 123.021,119.402 C123.208333,119.414 123.297333,119.426667 123.288,119.44 C123.278667,119.453333 123.773667,119.381667 124.773,119.225 C125.773,119.068333 126.957,118.791333 128.325,118.394 C129.693667,117.996 130.722333,117.577 131.411,117.137 C131.407667,116.945 129.335333,117.215667 125.194,117.949 C124.984667,118.117667 124.805667,118.269 124.657,118.403 C124.508333,118.537 124.303667,118.67 124.043,118.802 C123.783,118.934 123.571667,119.037667 123.409,119.113 C123.245667,119.188333 122.452,119.511 121.028,120.081 C119.604,120.651 118.159,121.218333 116.693,121.783 C116.181667,122.010333 115.65,122.255667 115.098,122.519 C114.545333,122.782333 113.964,123.141 113.354,123.595 C112.744,124.049667 112.242,124.461333 111.848,124.83 C111.453333,125.199333 111.069,125.604667 110.695,126.046 C110.321667,126.487333 110.045667,126.831667 109.867,127.079 C109.688333,127.326333 109.585,127.475667 109.557,127.527 C109.529667,127.577667 109.292667,127.964667 108.846,128.688 C108.399333,129.411333 107.958,130.151333 107.522,130.908 C107.086667,131.664667 106.766,132.245667 106.56,132.651 C106.354667,133.056333 106.174333,133.472 106.019,133.898 C105.864333,134.324 105.773,134.564667 105.745,134.62 C105.717,134.674667 105.624333,134.962333 105.467,135.483 C105.309667,136.003 105.182333,136.526 105.085,137.052 C104.987667,137.578 104.900333,138.091667 104.823,138.593 C104.747,139.095 104.678333,139.546 104.617,139.946 C104.555667,140.346667 104.489333,140.756 104.418,141.174 C104.346667,141.592 104.289333,142.085333 104.246,142.654 C104.202667,143.222667 104.188667,143.864333 104.204,144.579 C104.219333,145.293667 104.252667,145.891333 104.304,146.372 C104.355333,146.853333 104.438,147.357 104.552,147.883 C104.666,148.409 104.741,148.772 104.777,148.972 C104.813667,149.172 104.939333,149.550667 105.154,150.108 C105.094667,150.092667 105.020333,149.974333 104.931,149.753 C104.841667,149.532333 104.742667,149.165667 104.634,148.653 C104.525333,148.139667 104.451667,147.792333 104.413,147.611 C104.374333,147.429667 104.32,147.112333 104.25,146.659 C104.179333,146.205667 104.117667,145.720333 104.065,145.203 C104.012333,144.686333 103.978333,144.296667 103.963,144.034 C103.947667,143.772 103.906667,143.41 103.84,142.948 C103.774,142.486 103.731,142.004667 103.711,141.504 C103.691667,141.004 103.691,140.501333 103.709,139.996 C103.727667,139.491333 103.733667,139.217 103.727,139.173 C103.720333,139.129667 103.77,138.716333 103.876,137.933 C103.982,137.150333 104.136667,136.344333 104.34,135.515 C104.543333,134.685667 104.704333,134.098 104.823,133.752 C104.941667,133.406667 105.073,133.035 105.217,132.637 C105.360333,132.239 105.483,131.915667 105.585,131.667 C105.687667,131.418333 105.891667,130.939667 106.197,130.231 C106.503,129.523 106.752667,128.985333 106.946,128.618 C107.138667,128.250667 107.571333,127.452667 108.244,126.224 C108.916667,124.996 109.419667,124.127667 109.753,123.619 C110.086333,123.110333 110.271,122.829 110.307,122.775 C110.343,122.721667 110.577,122.432667 111.009,121.908 C111.441,121.383333 111.787667,120.983667 112.049,120.709 C112.311,120.435 112.693667,120.092667 113.197,119.682 C113.701,119.270667 114.217333,118.900667 114.746,118.572 C115.275333,118.244 115.73,117.989667 116.11,117.809 C116.490667,117.629 117.149667,117.348667 118.087,116.968 C119.023667,116.588 119.877333,116.270333 120.648,116.015 C121.418667,115.760333 122.065667,115.571667 122.589,115.449 C123.112333,115.326333 123.550667,115.217333 123.904,115.122 C124.256667,115.026 124.819,114.914667 125.591,114.788 C126.363,114.661333 127.637333,114.542 129.414,114.43 C131.19,114.318 132.358333,114.259667 132.919,114.255 C133.479667,114.251 133.874667,114.246333 134.104,114.241 C134.332667,114.235 134.96,114.245 135.986,114.271 C137.012,114.296333 137.792667,114.326667 138.328,114.362 C138.863333,114.397333 139.297333,114.438667 139.63,114.486 C139.962667,114.532667 140.161333,114.561 140.226,114.571 C140.29,114.581 140.693,114.629667 141.435,114.717 C142.176333,114.804333 142.829333,114.901333 143.394,115.008 C143.959333,115.115333 144.493,115.234 144.995,115.364 C145.497667,115.494 145.762667,115.56 145.79,115.562 C145.817333,115.564 146.091667,115.654 146.613,115.832 C147.134333,116.01 147.705,116.274 148.325,116.624 C148.944333,116.973333 149.270667,117.155667 149.304,117.171 C149.336667,117.187 149.542333,117.337333 149.921,117.622 C150.300333,117.906667 150.855,118.504667 151.585,119.416 C152.315,120.326667 152.905,121.145333 153.355,121.872 C153.805,122.599333 154.111,123.167 154.273,123.575 C154.434333,123.983 154.560333,124.314333 154.651,124.569" id="STROKE_8c46f3c1-7964-471d-8d57-e196ec94b3bd" stroke="#FAC141" stroke-width="20.93" stroke-linecap="round" stroke-linejoin="round"></path>
            </g>
        </g>
    </g>
</svg>