<svg height="76" viewBox="0 0 285 76" width="285" xmlns="http://www.w3.org/2000/svg"><g fill="none" fill-rule="evenodd"><g stroke="#ed4a38" stroke-linecap="round" stroke-linejoin="round" stroke-width="6" transform="translate(4 5)"><path d="m54.72 31.72c7.0333463-7.0333463 7.0333463-18.4366537 0-25.47-7.0333463-7.03334629-18.4366537-7.03334629-25.47 0l-20.25 20.25v25.5h25.5z"/><path d="m42 19-42 42"/><path d="m46.5 40h-25.5"/></g><path d="m120.487396 39.3462783c0 1.6051561-.140992 3.1885972-.422978 4.7503707-.281987 1.5617736-.688693 3.0692962-1.22013 4.5226132-.531437 1.4533171-1.203857 2.8144257-2.017281 4.0833667-.813423 1.2689409-1.751558 2.4022943-2.814432 3.4000941l8.069123 6.9303353-5.173349 4.7178339-9.240447-8.1016596c-.694121.1735304-1.415346.3145217-2.163696.4229782s-1.534648.1626839-2.358917.1626839c-2.884943 0-5.3956729-.6019245-7.5322658-1.8057916-2.136593-1.2038671-3.9098301-2.7873081-5.3197645-4.7503707-1.4099344-1.9630625-2.4619466-4.1918101-3.1560682-6.6863094-.6941216-2.4944994-1.0520226-5.0431888-1.0737139-7.6461447v-6.0518421c.0216913-1.887143.1843736-3.7362985.4880517-5.547522.3036782-1.8112234.7700342-3.5248103 1.3990818-5.1408121.6290477-1.6160018 1.4099227-3.0964107 2.3426486-4.4412713.9327259-1.3448605 2.02812-2.5107503 3.2862154-3.4977044 1.2580953-.9869541 2.6842768-1.7515609 4.2785873-2.2938434 1.5943104-.5422825 3.3567016-.8134197 5.2872276-.8134197 2.906634 0 5.444478.5965018 7.613608 1.7895233 2.16913 1.1930214 3.969481 2.7927307 5.401106 4.7991758 1.431626 2.0064452 2.505329 4.3219566 3.221142 6.9466038s1.08456 5.3577098 1.106251 8.19927zm-7.873902-6.1169157c0-1.8437604-.146414-3.6658022-.439247-5.46618-.292832-1.8003778-.797148-3.4055098-1.51296-4.8154443-.715813-1.4099344-1.686484-2.5541332-2.912043-3.4326309-1.225558-.8784976-2.760195-1.3177398-4.603955-1.3177398s-3.3567058.4392422-4.5388816 1.3177398c-1.1821757.8784977-2.1203104 2.0281193-2.8144319 3.4488993-.6941216 1.4207801-1.1767457 3.0313349-1.447887 4.8317127-.2711412 1.8003778-.4067098 3.6115741-.4067098 5.4336432v6.1169157c0 1.6051561.1355686 3.2482474.4067098 4.9293231.2711413 1.6810756.7537654 3.2211347 1.447887 4.6202235.6941215 1.3990888 1.6322562 2.5432877 2.8144319 3.4326309 1.1821758.8893433 2.6951216 1.3340082 4.5388816 1.3340082 1.865452 0 3.405511-.4446649 4.620224-1.3340082 1.214712-.8893432 2.179961-2.0281193 2.895774-3.4163625.715812-1.3882431 1.220128-2.9283022 1.51296-4.6202235.292833-1.6919214.439247-3.3404354.439247-4.9455915zm40.198186 21.5393521c-1.193021 1.735304-2.640894 3.0855671-4.343661 4.0508299s-3.60615 1.4478869-5.710206 1.4478869c-1.822069 0-3.486851-.2819826-4.994396-.8459564-1.507546-.5639738-2.798158-1.4587264-3.871878-2.6842848-1.073719-1.2255584-1.908822-2.7873085-2.505332-4.6852972-.596511-1.8979886-.894762-4.1809636-.894762-6.8489933v-20.8235429h7.776292v20.8886164c0 1.6919213.124723 3.0909891.374173 4.1972454.24945 1.1062562.634465 1.9847407 1.155056 2.6354796.520591.650739 1.17132 1.1116722 1.952207 1.3828134s1.713599.4067098 2.798164.4067098c2.082364 0 3.763415-.4067057 5.043201-1.2201294 1.279787-.8134237 2.245035-1.9142406 2.895774-3.3024838v-24.9882514h7.808829v35.2048021h-7.027946zm33.80572 5.46618c-2.602955 0-4.978117-.4338194-7.125556-1.3014714-2.147438-.8676519-3.985748-2.0606555-5.514985-3.5790464-1.529236-1.5183909-2.716817-3.313319-3.562778-5.384838-.845961-2.0715191-1.268934-4.3111121-1.268934-6.7188463v-1.3340082c0-2.7981776.450087-5.3143305 1.350276-7.5485343s2.104038-4.1430094 3.611583-5.7264743c1.507546-1.5834648 3.264514-2.7981593 5.27096-3.64412 2.006445-.8459606 4.115892-1.2689346 6.328404-1.2689346 2.559574 0 4.815435.4283967 6.767652 1.285203s3.584463 2.0606554 4.896786 3.6115832c1.312324 1.5509279 2.304686 3.3892379 2.977116 5.5149852s1.00864 4.457527 1.00864 6.9954089v3.2862154h-24.402589c.130148 1.3665518.466358 2.6354738 1.00864 3.8068039.542283 1.1713302 1.252662 2.1853832 2.13116 3.0421895.878497.8568063 1.908819 1.5292265 3.090995 2.0172807 1.182175.4880542 2.478211.7320777 3.888145.7320777 1.973909 0 3.790528-.3904375 5.449912-1.1713243s3.009647-1.85459 4.05083-3.2211418l4.229782 3.9694879c-.563974.8459606-1.290621 1.6647949-2.179965 2.4565273-.889343.7917324-1.93051 1.496689-3.123531 2.114891-1.193022.6182021-2.532439 1.1170945-4.018293 1.4966922s-3.107254.5693937-4.86425.5693937zm-.943566-30.2266739c-1.084565 0-2.093196.1952188-3.025921.5856622-.932726.3904434-1.767829.9598314-2.505333 1.7081812s-1.36112 1.6593707-1.870865 2.73309c-.509746 1.0737193-.873069 2.2938366-1.089982 3.6603884h16.49615v-.5856621c-.065074-1.0411824-.265715-2.0443899-.601931-3.0096527-.336215-.9652628-.829684-1.827479-1.480423-2.5866745-.650739-.7591954-1.469574-1.3665427-2.456528-1.82206-.986954-.4555172-2.141998-.6832725-3.465167-.6832725zm44.707568-6.2795996c.629047 0 1.258086.021691 1.887133.0650736.629048.0433826 1.230973.1084555 1.805792.1952207s1.100826.1789518 1.578034.2765627c.477209.0976108.878492.2114884 1.203861.3416362l-1.106251 7.6461446c-2.386042-.5422824-4.739513-.8134196-7.060482-.8134196-2.602956 0-4.701558.5422743-6.295868 1.6268393-1.594311 1.0845649-2.771046 2.5920876-3.530241 4.5226132v21.9948671h-7.776292v-35.2048021h7.28824l.357905 5.4987168c1.431625-1.9088343 3.128944-3.4109342 5.092007-4.5063448 1.963062-1.0954106 4.148428-1.6431077 6.556162-1.6431077zm29.771159 21.7671096 1.334008 4.2297822 9.891183-25.3461561h8.622248l-17.830159 40.540835c-.390443.8893432-.900181 1.8491688-1.529228 2.8795055-.629048 1.0303367-1.4045 1.9901623-2.326381 2.8795055-.92188.8893433-2.022697 1.6322591-3.302483 2.2287699-1.279787.5965107-2.776464.8947616-4.490077.8947616-.715813 0-1.437038-.0596502-2.163696-.1789523-.726659-.1193022-1.371965-.2548708-1.935939-.4067099l1.106251-6.0518421c.151839 0 .357903.0054227.618199.0162684.260295.0108456.531433.0271139.813419.0488052.281987.0216913.547702.0379595.797152.0488051.24945.0108457.450091.0162684.60193.0162684.759196 0 1.437039-.2223324 2.033549-.6670041.596511-.4446716 1.122517-.9544095 1.578034-1.5292289.455518-.5748194.829687-1.1387847 1.12252-1.6919129.292832-.5531281.504319-.9272974.634467-1.1225191l2.310112-4.3599292-14.966922-33.5454261h8.589712z" fill="#ed4a38"/></g></svg>