<svg height="37" width="136" xmlns="http://www.w3.org/2000/svg"><g fill="none" fill-rule="evenodd"><path d="m65.731 18.618c0 3.623-1.221 6.388-3.19 8.195l3.049 3.754h-4.522l-1.604-1.927c-1.11.393-2.322.595-3.603.595-5.572 0-9.861-3.815-9.861-10.617 0-6.833 4.29-10.618 9.86-10.618 5.552 0 9.871 3.785 9.871 10.618zm-11.606 2.906h4.037l1.271 1.625c.778-1.05 1.191-2.574 1.191-4.531 0-4.048-1.776-6.238-4.763-6.238-2.978 0-4.764 2.19-4.764 6.238 0 4.047 1.786 6.237 4.764 6.237.252 0 .504-.02.746-.05l-2.482-3.28zm24.545.737c0 1.807-1.15 2.816-2.614 2.816-1.514 0-2.442-1.03-2.452-2.715v-8.912h-4.936v9.88c.01 3.503 2.14 5.824 5.33 5.824 2.32 0 4.046-1.19 4.733-3.088h.161v2.886h4.703v-15.502h-4.925zm15.31 6.984c-4.874 0-7.841-3.018-7.841-7.983 0-4.804 3.007-8.014 7.69-8.014 4.4 0 7.51 2.806 7.51 7.913v1.231h-10.337v.131c0 1.898 1.171 3.16 3.069 3.16 1.291 0 2.3-.556 2.684-1.585l4.532.131c-.565 3.048-3.24 5.016-7.307 5.016zm-2.977-9.72h5.743c-.02-1.584-1.19-2.714-2.816-2.714-1.635 0-2.856 1.17-2.927 2.715zm12.869 9.427h4.935v-8.417c0-1.847 1.312-3.088 3.078-3.088.586 0 1.464.1 1.938.262v-4.29a5.642 5.642 0 0 0 -1.383-.18c-1.695 0-3.048.988-3.613 3.037h-.161v-2.826h-4.794zm15.472 5.794c3.552 0 5.319-1.797 6.176-4.31l5.844-16.976-5.198-.01-2.896 11.062h-.162l-2.856-11.062h-5.167l5.51 16.068-.192.464c-.535 1.11-1.544 1.16-2.997.686l-1.09 3.583c.747.293 1.847.495 3.028.495z" fill="#ed4a38"/><circle cx="19.325" cy="18.325" fill="#ed4a38" r="17.325"/><path d="m15.162 9.009c1.949-1.998 1.949-5.236 0-7.234a4.905 4.905 0 0 0 -7.057 0l-5.611 5.751v7.243h7.065zm-3.525-3.613-11.637 11.929m12.884-5.964h-7.064" stroke="#fff" stroke-linecap="round" stroke-linejoin="round" stroke-width="1.674" transform="translate(11 9)"/></g></svg>