<svg height="311" width="319" xmlns="http://www.w3.org/2000/svg"><g fill="none" fill-rule="evenodd"><circle cx="157.95" cy="146.25" fill="#ed4a38" fill-rule="nonzero" r="40.95"/><g stroke-linecap="round" stroke-linejoin="round"><g stroke="#fff" stroke-width="3.9" transform="translate(137.8 130)"><path d="m39.65 16.25h-11.7l-3.9 5.85h-7.8l-3.9-5.85h-11.7"/><path d="m7.378 2.814-6.728 13.436v11.7a3.9 3.9 0 0 0 3.9 3.9h31.2a3.9 3.9 0 0 0 3.9-3.9v-11.7l-6.727-13.436a3.9 3.9 0 0 0 -3.492-2.164h-18.563a3.9 3.9 0 0 0 -3.49 2.164z"/></g><g stroke="#9a9caa" stroke-width="3.076" transform="translate(195 213)"><path d="m9.47368421 12 4.73684209 4.5 15.7894737-15"/><path d="m28.421 13.5v10.5c0 1.657-1.414 3-3.158 3h-22.105c-1.744 0-3.158-1.343-3.158-3v-21c0-1.657 1.414-3 3.158-3h17.368"/></g><g stroke="#9a9caa" stroke-width="2.6" transform="translate(273 57)"><circle cx="13" cy="13" r="13"/><path d="m18.512 7.488-2.756 8.268-8.268 2.756 2.756-8.268z"/></g><g stroke="#9a9caa" stroke-width="2.6" transform="translate(260 243.1)"><circle cx="13" cy="13" r="13"/><path d="m26 13h-5.2m-15.6 0h-5.2m13-7.8v-5.2m0 26v-5.2"/></g><path d="m7 0v23m5.833-18.818h-8.75c-2.255 0-4.083 1.638-4.083 3.658s1.828 3.66 4.083 3.66h5.834c2.255 0 4.083 1.638 4.083 3.66 0 2.02-1.828 3.658-4.083 3.658h-9.917" stroke="#9a9caa" stroke-width="2.129" transform="translate(191 10)"/><path d="m127.4 215.897 7.358 7.358a10.4 10.4 0 1 1 -14.703 0z" stroke="#9a9caa" stroke-width="2.6"/><g stroke="#9a9caa" stroke-width="2.34" transform="translate(16 130)"><path d="m10.714 2.571h-8.333a2.381 2.381 0 0 0 -2.381 2.381v16.668a2.381 2.381 0 0 0 2.381 2.38h16.667a2.381 2.381 0 0 0 2.38-2.381v-8.333"/><path d="m19.643.786a2.525 2.525 0 0 1 3.571 3.571l-11.31 11.31-4.761 1.19 1.19-4.762 11.31-11.31z"/></g><path d="m251.6 153.7-2.6 2.6zm-12.493 12.493a7.15 7.15 0 1 1 -10.111 10.111 7.15 7.15 0 0 1 10.11-10.11zm0 0 5.343-5.343zm5.343-5.343 3.9 3.9 4.55-4.55-3.9-3.9zm0 0 4.55-4.55z" stroke="#9a9caa" stroke-width="2.6"/><g stroke="#9a9caa" stroke-width="2.6" transform="translate(72 87)"><circle cx="13" cy="13" r="13"/><circle cx="13" cy="13" r="5.2"/><path d="m3.809 3.809 5.512 5.512m7.358 7.358 5.512 5.512m-5.512-12.87 5.512-5.512m-5.512 5.512 4.589-4.589m-17.459 17.459 5.512-5.512"/></g><g stroke="#9a9caa" stroke-width="3.211" transform="translate(52 22)"><path d="m0 6.36235294v25.44941176l11.3641148-6.3623529 12.9875598 6.3623529 11.3641149-6.3623529v-25.4494118l-11.3641149 6.36235294-12.9875598-6.36235294z"/><path d="m11.364 0v25.45m12.988-19.089v25.45"/></g><g stroke="#9a9caa" stroke-width="3.38" transform="translate(37.4 234)"><path d="m32.78 23.474c-2.926 6.996-10.106 11.158-17.554 10.176-7.448-.98-13.334-6.864-14.39-14.383-1.054-7.52 2.981-14.827 9.864-17.864"/><path d="m34.1 16.9c0-4.482-1.761-8.78-4.896-11.95a16.622 16.622 0 0 0 -11.818-4.95v16.9z"/></g><path d="m3.9 23.4v-9.1m0-5.2v-9.1m10.4 23.4v-11.7m0-5.2v-6.5m10.4 23.4v-6.5m0-5.2v-11.7m-24.7 14.3h7.8m2.6-7.8h7.8m2.6 10.4h7.8" stroke="#9a9caa" stroke-width="2.6" transform="translate(150.8 278.2)"/><g stroke="#9a9caa" stroke-width="2.368" transform="translate(288 147)"><path d="m0 14.4 7.5-7.2-7.5-7.2"/><path d="m10 16.8h10"/></g><g stroke="#9a9caa" stroke-width="2.6" transform="translate(62.4 179.4)"><path d="m28.6 0-12.35 12.35-6.5-6.5-9.75 9.75"/><path d="m20.8 0h7.8v7.8"/></g><g stroke="#9a9caa" stroke-width="3.38" transform="translate(205.4 66)"><rect height="18.386" rx="3.38" width="29.9" y="15.714"/><path d="m6.644 15.714v-6.684c-.004-4.295 3.226-7.893 7.471-8.325 4.246-.431 8.125 2.445 8.975 6.652"/></g><path d="m13 0-13 15.6h11.7l-1.3 10.4 13-15.6h-11.7z" stroke="#9a9caa" stroke-width="2.6" transform="translate(134.55 53.3)"/></g></g></svg>