<svg width="319" height="311" xmlns="http://www.w3.org/2000/svg"><g fill="none" fill-rule="evenodd"><g transform="translate(117 105.3)"><circle fill="#ED4A38" fill-rule="nonzero" cx="40.95" cy="40.95" r="40.95"/><g stroke-linecap="round" stroke-linejoin="round" transform="translate(20.8 24.7)" stroke-width="3.9" stroke="#FFF"><path d="M39.65 16.25L27.95 16.25 24.05 22.1 16.25 22.1 12.35 16.25 0.65 16.25"/><path d="M7.378 2.814L.65 16.25v11.7a3.9 3.9 0 0 0 3.9 3.9h31.2a3.9 3.9 0 0 0 3.9-3.9v-11.7L32.923 2.814A3.9 3.9 0 0 0 29.431.65H10.868a3.9 3.9 0 0 0-3.49 2.164z"/></g></g><g transform="translate(195 213)" stroke-linecap="round" stroke-width="3.076" stroke="#9A9CAA" stroke-linejoin="round"><path d="M9.47368421 12L14.2105263 16.5 30 1.5"/><path d="M28.421 13.5V24c0 1.657-1.414 3-3.158 3H3.158C1.414 27 0 25.657 0 24V3c0-1.657 1.414-3 3.158-3h17.368"/></g><g transform="translate(273 57)" stroke="#9A9CAA" stroke-width="2.6" stroke-linecap="round" stroke-linejoin="round"><circle cx="13" cy="13" r="13"/><path d="M18.512 7.488L15.756 15.756 7.488 18.512 10.244 10.244z"/></g><g transform="translate(260 243.1)" stroke="#9A9CAA" stroke-width="2.6" stroke-linecap="round" stroke-linejoin="round"><circle cx="13" cy="13" r="13"/><path d="M26 13h-5.2M5.2 13H0m13-7.8V0m0 26v-5.2"/></g><g transform="translate(191 10)" stroke="#9A9CAA" stroke-width="2.129" stroke-linecap="round" stroke-linejoin="round"><path d="M7 0v23m5.833-18.818h-8.75C1.828 4.182 0 5.82 0 7.84 0 9.86 1.828 11.5 4.083 11.5h5.834c2.255 0 4.083 1.638 4.083 3.66 0 2.02-1.828 3.658-4.083 3.658H0"/></g><path d="M127.4 215.897l7.358 7.358a10.4 10.4 0 1 1-14.703 0l7.345-7.358z" stroke="#9A9CAA" stroke-width="2.6" stroke-linecap="round" stroke-linejoin="round"/><g transform="translate(16 130)" stroke="#9A9CAA" stroke-width="2.34" stroke-linecap="round" stroke-linejoin="round"><path d="M10.714 2.571H2.381A2.381 2.381 0 0 0 0 4.952V21.62A2.381 2.381 0 0 0 2.381 24h16.667a2.381 2.381 0 0 0 2.38-2.381v-8.333"/><path d="M19.643.786a2.525 2.525 0 0 1 3.571 3.571l-11.31 11.31-4.761 1.19 1.19-4.762L19.643.785z"/></g><path d="M249.6 154.7l-2.6 2.6 2.6-2.6zm-12.493 12.493a7.15 7.15 0 1 1-10.111 10.111 7.15 7.15 0 0 1 10.11-10.11l.001-.001zm0 0l5.343-5.343-5.343 5.343zm5.343-5.343l3.9 3.9 4.55-4.55-3.9-3.9-4.55 4.55zm0 0l4.55-4.55-4.55 4.55z" stroke="#9A9CAA" stroke-width="2.6" stroke-linecap="round" stroke-linejoin="round"/><g transform="translate(72 87)" stroke="#9A9CAA" stroke-width="2.6" stroke-linecap="round" stroke-linejoin="round"><circle cx="13" cy="13" r="13"/><circle cx="13" cy="13" r="5.2"/><path d="M3.809 3.809l5.512 5.512m7.358 7.358l5.512 5.512m-5.512-12.87l5.512-5.512m-5.512 5.512l4.589-4.589M3.809 22.191l5.512-5.512"/></g><g transform="translate(50.95 21.2)" stroke-linecap="round" stroke-width="3.38" stroke="#9A9CAA" stroke-linejoin="round"><path d="M0 6.76L0 33.8 11.9954545 27.04 25.7045455 33.8 37.7 27.04 37.7 0 25.7045455 6.76 11.9954545 0z"/><path d="M11.995 0v27.04m13.71-20.28V33.8"/></g><g transform="translate(37.4 234)" stroke="#9A9CAA" stroke-width="3.38" stroke-linecap="round" stroke-linejoin="round"><path d="M32.78 23.474C29.854 30.47 22.674 34.632 15.226 33.65 7.778 32.67 1.892 26.786.836 19.267-.218 11.747 3.817 4.44 10.7 1.403"/><path d="M34.1 16.9c0-4.482-1.761-8.78-4.896-11.95A16.622 16.622 0 0 0 17.386 0v16.9H34.1z"/></g><g transform="translate(150.8 278.2)" stroke="#9A9CAA" stroke-width="2.6" stroke-linecap="round" stroke-linejoin="round"><path d="M3.9 23.4v-9.1m0-5.2V0m10.4 23.4V11.7m0-5.2V0m10.4 23.4v-6.5m0-5.2V0M0 14.3h7.8m2.6-7.8h7.8m2.6 10.4h7.8"/></g><g transform="translate(284 146)" stroke-linecap="round" stroke-width="2.368" stroke="#9A9CAA" stroke-linejoin="round"><path d="M0 14.4L7.5 7.2 0 0"/><path d="M10 16.8h10"/></g><g transform="translate(62.4 179.4)" stroke-linecap="round" stroke-width="2.6" stroke="#9A9CAA" stroke-linejoin="round"><path d="M28.6 0L16.25 12.35 9.75 5.85 0 15.6"/><path d="M20.8 0L28.6 0 28.6 7.8"/></g><g transform="translate(205.4 66)" stroke="#9A9CAA" stroke-width="3.38" stroke-linecap="round" stroke-linejoin="round"><rect y="15.714" width="29.9" height="18.386" rx="3.38"/><path d="M6.644 15.714V9.03C6.64 4.735 9.87 1.137 14.115.705 18.361.274 22.24 3.15 23.09 7.357"/></g><path transform="translate(134.55 53.3)" stroke-linecap="round" stroke-width="2.6" stroke="#9A9CAA" stroke-linejoin="round" d="M13 0L0 15.6 11.7 15.6 10.4 26 23.4 10.4 11.7 10.4z"/></g></svg>