<?xml version="1.0" encoding="UTF-8"?>
<svg width="319px" height="311px" viewBox="0 0 319 311" version="1.1" xmlns="http://www.w3.org/2000/svg" xmlns:xlink="http://www.w3.org/1999/xlink">
    <!-- Generator: Sketch 43.2 (39069) - http://www.bohemiancoding.com/sketch -->
    <title>query-graphic</title>
    <desc>Created with Sketch.</desc>
    <defs></defs>
    <g id="Page-1" stroke="none" stroke-width="1" fill="none" fill-rule="evenodd">
        <g id="query-graphic">
            <g id="inbox-circle" transform="translate(117.000000, 105.300000)">
                <circle id="Oval" fill="#ED4A38" fill-rule="nonzero" cx="40.95" cy="40.95" r="40.95"></circle>
                <g id="Group" stroke-linecap="round" stroke-linejoin="round" transform="translate(20.800000, 24.700000)" stroke-width="3.9" stroke="#FFFFFF">
                    <polyline id="Shape" points="39.65 16.25 27.95 16.25 24.05 22.1 16.25 22.1 12.35 16.25 0.65 16.25"></polyline>
                    <path d="M7.3775,2.8145 L0.65,16.25 L0.65,27.95 C0.65,30.1039105 2.39608954,31.85 4.55,31.85 L35.75,31.85 C37.9039105,31.85 39.65,30.1039105 39.65,27.95 L39.65,16.25 L32.9225,2.8145 C32.2639265,1.48916755 30.9119408,0.65078533 29.432,0.65 L10.868,0.65 C9.3880592,0.65078533 8.0360735,1.48916755 7.3775,2.8145 Z" id="Shape"></path>
                </g>
            </g>
            <g id="check-square" transform="translate(195.000000, 213.000000)" stroke-linecap="round" stroke-width="3.0758" stroke="#7F8192" stroke-linejoin="round">
                <polyline id="Shape" points="9.47368421 12 14.2105263 16.5 30 1.5"></polyline>
                <path d="M28.4210526,13.5 L28.4210526,24 C28.4210526,25.6568542 27.007215,27 25.2631579,27 L3.15789474,27 C1.41383763,27 0,25.6568542 0,24 L0,3 C0,1.34314575 1.41383763,0 3.15789474,0 L20.5263158,0" id="Shape"></path>
            </g>
            <g id="compass" transform="translate(273.000000, 57.000000)" stroke="#7F8192" stroke-width="2.6" stroke-linecap="round" stroke-linejoin="round">
                <circle id="Oval" cx="13" cy="13" r="13"></circle>
                <polygon id="Shape" points="18.512 7.488 15.756 15.756 7.488 18.512 10.244 10.244"></polygon>
            </g>
            <g id="crosshair" transform="translate(260.000000, 243.100000)" stroke="#7F8192" stroke-width="2.6" stroke-linecap="round" stroke-linejoin="round">
                <circle id="Oval" cx="13" cy="13" r="13"></circle>
                <path d="M26,13 L20.8,13" id="Shape"></path>
                <path d="M5.2,13 L0,13" id="Shape"></path>
                <path d="M13,5.2 L13,0" id="Shape"></path>
                <path d="M13,26 L13,20.8" id="Shape"></path>
            </g>
            <g id="dollar-sign" transform="translate(191.000000, 10.000000)" stroke="#7F8192" stroke-width="2.1294" stroke-linecap="round" stroke-linejoin="round">
                <path d="M7,0 L7,23" id="Shape"></path>
                <path d="M12.8333333,4.18181818 L4.08333333,4.18181818 C1.8281706,4.18181818 -8.8817842e-16,5.82004898 -8.8817842e-16,7.84090909 C-8.8817842e-16,9.8617692 1.8281706,11.5 4.08333333,11.5 L9.91666667,11.5 C12.1718294,11.5 13.9999999,13.1382308 13.9999999,15.1590909 C13.9999999,17.179951 12.1718294,18.8181818 9.91666667,18.8181818 L1.48029737e-16,18.8181818" id="Shape"></path>
            </g>
            <g id="droplet" transform="translate(117.000000, 215.000000)" stroke="#7F8192" stroke-width="2.6" stroke-linecap="round" stroke-linejoin="round">
                <path d="M10.4,0.897 L17.758,8.255 C20.7337926,11.2288427 21.624822,15.7026029 20.0154992,19.5896534 C18.4061763,23.476704 14.6135277,26.0113203 10.4065,26.0113203 C6.1994723,26.0113203 2.40682368,23.476704 0.797500815,19.5896534 C-0.811822047,15.7026029 0.0792073941,11.2288427 3.055,8.255 L10.4,0.897 Z" id="Shape"></path>
            </g>
            <g id="edit" transform="translate(16.000000, 129.000000)" stroke="#7F8192" stroke-width="2.34" stroke-linecap="round" stroke-linejoin="round">
                <path d="M10.7142857,3.57142857 L2.38095238,3.57142857 C1.06598869,3.57142857 0,4.63741726 0,5.95238095 L0,22.6190476 C0,23.9340113 1.06598869,25 2.38095238,25 L19.047619,25 C20.3625827,25 21.4285714,23.9340113 21.4285714,22.6190476 L21.4285714,14.2857143" id="Shape"></path>
                <path d="M19.6428571,1.78571429 C20.6290799,0.799491554 22.2280629,0.79949157 23.2142857,1.78571432 C24.2005084,2.77193708 24.2005084,4.37092008 23.2142857,5.35714286 L11.9047619,16.6666667 L7.14285714,17.8571429 L8.33333333,13.0952381 L19.6428571,1.78571429 Z" id="Shape"></path>
            </g>
            <g id="key" transform="translate(224.900000, 154.700000)" stroke="#7F8192" stroke-width="2.6" stroke-linecap="round" stroke-linejoin="round">
                <path d="M24.7,0 L22.1,2.6 L24.7,0 Z M12.207,12.493 C14.0334546,14.2951418 14.7542175,16.9377917 14.0956604,19.4177017 C13.4371033,21.8976117 11.5002117,23.8345033 9.02030171,24.4930604 C6.54039167,25.1516175 3.89774175,24.4308546 2.0956,22.6044 C-0.614051298,19.798891 -0.575299473,15.3393938 2.18269719,12.5813972 C4.94069384,9.82340053 9.40019096,9.7846487 12.2057,12.4943 L12.207,12.493 Z M12.207,12.493 L17.55,7.15 L12.207,12.493 Z M17.55,7.15 L21.45,11.05 L26,6.5 L22.1,2.6 L17.55,7.15 Z M17.55,7.15 L22.1,2.6 L17.55,7.15 Z" id="Shape"></path>
            </g>
            <g id="life-buoy" transform="translate(72.000000, 87.000000)" stroke="#7F8192" stroke-width="2.6" stroke-linecap="round" stroke-linejoin="round">
                <circle id="Oval" cx="13" cy="13" r="13"></circle>
                <circle id="Oval" cx="13" cy="13" r="5.2"></circle>
                <path d="M3.809,3.809 L9.321,9.321" id="Shape"></path>
                <path d="M16.679,16.679 L22.191,22.191" id="Shape"></path>
                <path d="M16.679,9.321 L22.191,3.809" id="Shape"></path>
                <path d="M16.679,9.321 L21.268,4.732" id="Shape"></path>
                <path d="M3.809,22.191 L9.321,16.679" id="Shape"></path>
            </g>
            <g id="map" transform="translate(50.950000, 21.200000)" stroke-linecap="round" stroke-width="3.38" stroke="#7F8192" stroke-linejoin="round">
                <polygon id="Shape" points="0 6.76 0 33.8 11.9954545 27.04 25.7045455 33.8 37.7 27.04 37.7 0 25.7045455 6.76 11.9954545 0"></polygon>
                <path d="M11.9954545,0 L11.9954545,27.04" id="Shape"></path>
                <path d="M25.7045455,6.76 L25.7045455,33.8" id="Shape"></path>
            </g>
            <g id="pie-chart" transform="translate(36.400000, 234.000000)" stroke="#7F8192" stroke-width="3.38" stroke-linecap="round" stroke-linejoin="round">
                <path d="M33.7795714,23.4741 C30.8543193,30.4688122 23.6738196,34.6315534 16.2258485,33.6504954 C8.77787746,32.6694374 2.89181004,26.7855484 1.8365441,19.2665163 C0.781278152,11.7474842 4.81600872,4.44013816 11.7,1.4027" id="Shape"></path>
                <path d="M35.1,16.9 C35.1,12.4178413 33.3390357,8.11926019 30.2044991,4.9498954 C27.0699624,1.7805306 22.8186185,3.75255382e-16 18.3857143,0 L18.3857143,16.9 L35.1,16.9 Z" id="Shape"></path>
            </g>
            <g id="sliders" transform="translate(150.800000, 278.200000)" stroke="#7F8192" stroke-width="2.6" stroke-linecap="round" stroke-linejoin="round">
                <path d="M3.9,23.4 L3.9,14.3" id="Shape"></path>
                <path d="M3.9,9.1 L3.9,0" id="Shape"></path>
                <path d="M14.3,23.4 L14.3,11.7" id="Shape"></path>
                <path d="M14.3,6.5 L14.3,0" id="Shape"></path>
                <path d="M24.7,23.4 L24.7,16.9" id="Shape"></path>
                <path d="M24.7,11.7 L24.7,0" id="Shape"></path>
                <path d="M0,14.3 L7.8,14.3" id="Shape"></path>
                <path d="M10.4,6.5 L18.2,6.5" id="Shape"></path>
                <path d="M20.8,16.9 L28.6,16.9" id="Shape"></path>
            </g>
            <g id="terminal" transform="translate(284.000000, 146.000000)" stroke-linecap="round" stroke-width="2.368366" stroke="#7F8192" stroke-linejoin="round">
                <polyline id="Shape" points="0 14.4 7.5 7.2 0 0"></polyline>
                <path d="M10,16.8 L20,16.8" id="Shape"></path>
            </g>
            <g id="trending-up" transform="translate(62.400000, 179.400000)" stroke-linecap="round" stroke-width="2.6" stroke="#7F8192" stroke-linejoin="round">
                <polyline id="Shape" points="28.6 0 16.25 12.35 9.75 5.85 0 15.6"></polyline>
                <polyline id="Shape" points="20.8 0 28.6 0 28.6 7.8"></polyline>
            </g>
            <g id="unlock" transform="translate(205.400000, 65.000000)" stroke="#7F8192" stroke-width="3.38" stroke-linecap="round" stroke-linejoin="round">
                <rect id="Rectangle-path" x="0" y="16.7142857" width="29.9" height="18.3857143" rx="3.38"></rect>
                <path d="M6.64444444,16.7142857 L6.64444444,10.0285714 C6.6401561,5.73506335 9.86989418,2.1368325 14.1152982,1.70534028 C18.3607023,1.27384806 22.2403314,4.14950065 23.0894444,8.35714286" id="Shape"></path>
            </g>
            <g id="zap" transform="translate(134.550000, 53.300000)" stroke-linecap="round" stroke-width="2.6" stroke="#7F8192" stroke-linejoin="round">
                <polygon id="Shape" points="13 0 0 15.6 11.7 15.6 10.4 26 23.4 10.4 11.7 10.4"></polygon>
            </g>
        </g>
    </g>
</svg>